# xmcd
#
# Track frame offsets: 
#        150
#        19263
#        39628
#        60205
#        80277
#        97098
#        113367
#        135379
#        151835
#        170688
#        187570
#
# Disc length: 2819 seconds
#
# Revision: 0
# Processed by: cddbd v1.5.2PL0 Copyright (c) Steve Scherf et al.
# Submitted via: ExactAudioCopy v0.95a5
#
DISCID=750b010b
DTITLE=Olivea Watson - Way Down Deep_Promo
DYEAR=2007
DGENRE=
TTITLE0=Let Go
TTITLE1=Goodbye
TTITLE2=All's I Want
TTITLE3=Wake Up
TTITLE4=Dirty Noise
TTITLE5=Can You Feel
TTITLE6=Change Me
TTITLE7=Comes Down to You
TTITLE8=Back to L.A.
TTITLE9=O' Henry
TTITLE10=Way Down Deep
EXTD=
EXTT0=
EXTT1=
EXTT2=
EXTT3=
EXTT4=
EXTT5=
EXTT6=
EXTT7=
EXTT8=
EXTT9=
EXTT10=
PLAYORDER=
